# xmcd
#
# Track frame offsets:
#	150
#	10057
#	20323
#	31489
#	42205
#	51871
#	62812
#	72853
#	85069
#	95485
#	107626
#	117292
#	127183
#	137374
#	146290
#	160231
#	170047
#	180238
#	189529
#	199120
#	210661
#	221902
#	232993
#	241759
#	253225
#
# Disc length: 3531 seconds
#
# Revision: 0
# Processed by: cddbd v1.5.2PL0 Copyright (c) Steve Scherf et al.
# Submitted via: audiograbber 1.83.01
#
DISCID=5d0dc919
DTITLE=Various Artist - Rockabilly Cowboys - Disc 7
DYEAR=2012
DGENRE=Country
TTITLE0=Hank Thompson - A Six Pack To Go
TTITLE1=Dub Dickerson - My Gal Gertie
TTITLE2=Jerry Reed - Mister Whizz
TTITLE3=Faron Young - I Can´t Dance
TTITLE4=Bob Luman - Everybody´s Talkin´
TTITLE5=Tennessee Ernie Ford - Hey Mister Cottonpicker
TTITLE6=Skeets McDonald - Don´t Push Me Too Far
TTITLE7=Louvin Brothers - Red Hen Hop
TTITLE8=Rose Maddox - Move It On Over
TTITLE9=Farmer Boys - My Baby Done Left Me
TTITLE10=Jean Shepard - Jeopardy
TTITLE11=Ferlin Husky - Draggin´ The River
TTITLE12=Milo Twins - Baby Buggie Boogie
TTITLE13=Jimmy Heap - Go Ahead On
TTITLE14=Merle Travis - Merle´s Boogie Woogie
TTITLE15=Ramblin´ Jimmie Dolan - Juke Box Boogie
TTITLE16=Gene O´Quin - Too Hot To Handle
TTITLE17=Sonny James - You´ve Got That Touch
TTITLE18=Merle Kilgore - Everybody Needs A Little Lovin´
TTITLE19=Hank Thompson - Deep Elem
TTITLE20=Gene Henslee - Diggin´ `N´ Datin´
TTITLE21=Wally Lewis - Lover Boy
TTITLE22=Faron Young - Last Night At A Party
TTITLE23=Tennessee Ernie Ford - Blackberry Boogie
TTITLE24=Jerry Reed - You Make It, They Take It
EXTD=
EXTT0=
EXTT1=
EXTT2=
EXTT3=
EXTT4=
EXTT5=
EXTT6=
EXTT7=
EXTT8=
EXTT9=
EXTT10=
EXTT11=
EXTT12=
EXTT13=
EXTT14=
EXTT15=
EXTT16=
EXTT17=
EXTT18=
EXTT19=
EXTT20=
EXTT21=
EXTT22=
EXTT23=
EXTT24=
PLAYORDER=
